<mxfile host="app.diagrams.net" modified="2024-01-16T17:02:09.335Z" agent="Mozilla/5.0 (Windows NT 10.0; Win64; x64) AppleWebKit/537.36 (KHTML, like Gecko) Chrome/120.0.0.0 Safari/537.36" version="21.7.2" etag="Ei5m2L27oZvQQxPaLUsP" type="github">
  <diagram name="Page-1" id="0PqSUKpEaMtghfAIPnRg">
    <mxGraphModel>
      <root>
        <mxCell id="0" />
        <mxCell id="1" parent="0" />
      </root>
    </mxGraphModel>
  </diagram>
</mxfile>
